<mxfile host="app.diagrams.net" modified="2024-06-21T02:49:34.750Z" agent="Mozilla/5.0 (X11; Ubuntu; Linux x86_64; rv:127.0) Gecko/20100101 Firefox/127.0" etag="wN8FVXqE6MZzAaiVMYCn" version="24.6.0" type="device">
  <diagram name="Page-1" id="yuPBU4UE_motjavbdSF-">
    <mxGraphModel dx="1600" dy="1144" grid="1" gridSize="10" guides="1" tooltips="1" connect="1" arrows="1" fold="1" page="0" pageScale="1" pageWidth="1169" pageHeight="827" math="0" shadow="0">
      <root>
        <mxCell id="0" />
        <mxCell id="1" parent="0" />
        <mxCell id="W1fyiQ1UdQSS2ZDAop95-156" value="" style="rounded=0;whiteSpace=wrap;html=1;fillColor=none;" parent="1" vertex="1">
          <mxGeometry x="-290" y="-80" width="840" height="590" as="geometry" />
        </mxCell>
        <mxCell id="W1fyiQ1UdQSS2ZDAop95-2" value="&lt;font color=&quot;#0000ff&quot; style=&quot;font-size: 20px;&quot;&gt;toplevel&lt;/font&gt;" style="text;html=1;align=center;verticalAlign=middle;resizable=0;points=[];autosize=1;strokeColor=none;fillColor=none;" parent="1" vertex="1">
          <mxGeometry x="-290" y="-110" width="90" height="40" as="geometry" />
        </mxCell>
        <mxCell id="W1fyiQ1UdQSS2ZDAop95-7" value="" style="rounded=0;whiteSpace=wrap;html=1;fillColor=none;" parent="1" vertex="1">
          <mxGeometry x="-160" y="-40" width="210" height="120" as="geometry" />
        </mxCell>
        <mxCell id="W1fyiQ1UdQSS2ZDAop95-8" value="&lt;font color=&quot;#0000ff&quot; style=&quot;font-size: 20px;&quot;&gt;Imem&lt;br&gt;&lt;/font&gt;" style="text;html=1;align=center;verticalAlign=middle;resizable=0;points=[];autosize=1;" parent="1" vertex="1">
          <mxGeometry x="-168" y="-70" width="70" height="40" as="geometry" />
        </mxCell>
        <mxCell id="W1fyiQ1UdQSS2ZDAop95-10" value="&lt;font color=&quot;#0000ff&quot; style=&quot;font-size: 20px;&quot;&gt;Dmem&lt;br&gt;&lt;/font&gt;" style="text;html=1;align=center;verticalAlign=middle;resizable=0;points=[];autosize=1;strokeColor=none;fillColor=none;" parent="1" vertex="1">
          <mxGeometry x="190" y="-70" width="80" height="40" as="geometry" />
        </mxCell>
        <mxCell id="W1fyiQ1UdQSS2ZDAop95-17" value="" style="endArrow=classic;html=1;rounded=0;" parent="1" edge="1">
          <mxGeometry width="50" height="50" relative="1" as="geometry">
            <mxPoint x="120" as="sourcePoint" />
            <mxPoint x="200" as="targetPoint" />
          </mxGeometry>
        </mxCell>
        <mxCell id="W1fyiQ1UdQSS2ZDAop95-18" value="&lt;div style=&quot;font-size: 20px;&quot;&gt;&lt;font style=&quot;font-size: 20px;&quot;&gt;clock&lt;/font&gt;&lt;/div&gt;" style="edgeLabel;html=1;align=center;verticalAlign=middle;resizable=0;points=[];" parent="W1fyiQ1UdQSS2ZDAop95-17" vertex="1" connectable="0">
          <mxGeometry x="0.0422" y="-6" relative="1" as="geometry">
            <mxPoint x="-2" y="-6" as="offset" />
          </mxGeometry>
        </mxCell>
        <mxCell id="W1fyiQ1UdQSS2ZDAop95-19" value="" style="endArrow=classic;html=1;rounded=0;entryX=0;entryY=0.16;entryDx=0;entryDy=0;entryPerimeter=0;" parent="1" edge="1">
          <mxGeometry width="50" height="50" relative="1" as="geometry">
            <mxPoint x="-240" y="40" as="sourcePoint" />
            <mxPoint x="-160" y="40" as="targetPoint" />
          </mxGeometry>
        </mxCell>
        <mxCell id="W1fyiQ1UdQSS2ZDAop95-20" value="&lt;font style=&quot;font-size: 20px;&quot;&gt;reset&lt;/font&gt;" style="edgeLabel;html=1;align=center;verticalAlign=middle;resizable=0;points=[];" parent="W1fyiQ1UdQSS2ZDAop95-19" vertex="1" connectable="0">
          <mxGeometry x="0.0422" y="-6" relative="1" as="geometry">
            <mxPoint x="-2" y="-6" as="offset" />
          </mxGeometry>
        </mxCell>
        <mxCell id="W1fyiQ1UdQSS2ZDAop95-21" value="" style="endArrow=classic;html=1;rounded=0;" parent="1" edge="1">
          <mxGeometry width="50" height="50" relative="1" as="geometry">
            <mxPoint x="120" y="40" as="sourcePoint" />
            <mxPoint x="200" y="40" as="targetPoint" />
          </mxGeometry>
        </mxCell>
        <mxCell id="W1fyiQ1UdQSS2ZDAop95-22" value="&lt;font style=&quot;font-size: 20px;&quot;&gt;reset&lt;/font&gt;" style="edgeLabel;html=1;align=center;verticalAlign=middle;resizable=0;points=[];" parent="W1fyiQ1UdQSS2ZDAop95-21" vertex="1" connectable="0">
          <mxGeometry x="0.0422" y="-6" relative="1" as="geometry">
            <mxPoint x="-2" y="-6" as="offset" />
          </mxGeometry>
        </mxCell>
        <mxCell id="W1fyiQ1UdQSS2ZDAop95-25" value="" style="rounded=0;whiteSpace=wrap;html=1;shadow=0;glass=0;fillColor=none;" parent="1" vertex="1">
          <mxGeometry x="200" y="-40" width="240" height="120" as="geometry" />
        </mxCell>
        <mxCell id="W1fyiQ1UdQSS2ZDAop95-37" value="" style="endArrow=classic;html=1;rounded=0;exitX=0.1;exitY=0;exitDx=0;exitDy=0;exitPerimeter=0;" parent="1" source="W1fyiQ1UdQSS2ZDAop95-154" edge="1">
          <mxGeometry width="50" height="50" relative="1" as="geometry">
            <mxPoint x="-100" y="260" as="sourcePoint" />
            <mxPoint x="-100" y="80" as="targetPoint" />
          </mxGeometry>
        </mxCell>
        <mxCell id="W1fyiQ1UdQSS2ZDAop95-38" value="&lt;font style=&quot;font-size: 20px;&quot;&gt;imem_ren&lt;/font&gt;" style="edgeLabel;html=1;align=center;verticalAlign=middle;resizable=0;points=[];rotation=90;" parent="W1fyiQ1UdQSS2ZDAop95-37" vertex="1" connectable="0">
          <mxGeometry x="0.0691" y="-1" relative="1" as="geometry">
            <mxPoint x="-1" y="-13" as="offset" />
          </mxGeometry>
        </mxCell>
        <mxCell id="W1fyiQ1UdQSS2ZDAop95-39" value="" style="endArrow=classic;html=1;rounded=0;entryX=0.153;entryY=1.006;entryDx=0;entryDy=0;entryPerimeter=0;exitX=0.167;exitY=0.002;exitDx=0;exitDy=0;exitPerimeter=0;" parent="1" source="W1fyiQ1UdQSS2ZDAop95-154" edge="1">
          <mxGeometry width="50" height="50" relative="1" as="geometry">
            <mxPoint x="-60" y="260" as="sourcePoint" />
            <mxPoint x="-60" y="80" as="targetPoint" />
          </mxGeometry>
        </mxCell>
        <mxCell id="W1fyiQ1UdQSS2ZDAop95-40" value="&lt;font style=&quot;font-size: 20px;&quot;&gt;imem_block_address&lt;/font&gt;" style="edgeLabel;html=1;align=center;verticalAlign=middle;resizable=0;points=[];rotation=90;" parent="W1fyiQ1UdQSS2ZDAop95-39" vertex="1" connectable="0">
          <mxGeometry x="0.0691" y="-1" relative="1" as="geometry">
            <mxPoint x="-1" y="6" as="offset" />
          </mxGeometry>
        </mxCell>
        <mxCell id="W1fyiQ1UdQSS2ZDAop95-41" value="" style="endArrow=classic;html=1;rounded=0;strokeColor=#0000FF;entryX=0.233;entryY=0;entryDx=0;entryDy=0;entryPerimeter=0;" parent="1" target="W1fyiQ1UdQSS2ZDAop95-154" edge="1">
          <mxGeometry width="50" height="50" relative="1" as="geometry">
            <mxPoint x="-20.53" y="80" as="sourcePoint" />
            <mxPoint x="-20.19" y="260" as="targetPoint" />
          </mxGeometry>
        </mxCell>
        <mxCell id="W1fyiQ1UdQSS2ZDAop95-43" value="&lt;font style=&quot;font-size: 20px;&quot;&gt;imem_dout&lt;/font&gt;" style="edgeLabel;html=1;align=center;verticalAlign=middle;resizable=0;points=[];rotation=90;" parent="1" vertex="1" connectable="0">
          <mxGeometry x="-20" y="180" as="geometry" />
        </mxCell>
        <mxCell id="W1fyiQ1UdQSS2ZDAop95-44" value="" style="endArrow=classic;html=1;rounded=0;strokeColor=#0000FF;entryX=0.3;entryY=0;entryDx=0;entryDy=0;entryPerimeter=0;" parent="1" target="W1fyiQ1UdQSS2ZDAop95-154" edge="1">
          <mxGeometry width="50" height="50" relative="1" as="geometry">
            <mxPoint x="18.95" y="80" as="sourcePoint" />
            <mxPoint x="18.95" y="260" as="targetPoint" />
          </mxGeometry>
        </mxCell>
        <mxCell id="W1fyiQ1UdQSS2ZDAop95-45" value="&lt;font style=&quot;font-size: 20px;&quot;&gt;imem_ready&lt;/font&gt;" style="edgeLabel;html=1;align=center;verticalAlign=middle;resizable=0;points=[];rotation=90;" parent="1" vertex="1" connectable="0">
          <mxGeometry x="20" y="180" as="geometry">
            <mxPoint x="-1" y="-6.123233995736766e-17" as="offset" />
          </mxGeometry>
        </mxCell>
        <mxCell id="W1fyiQ1UdQSS2ZDAop95-46" value="" style="endArrow=classic;html=1;rounded=0;entryX=0.153;entryY=1.006;entryDx=0;entryDy=0;entryPerimeter=0;exitX=0.634;exitY=-0.002;exitDx=0;exitDy=0;exitPerimeter=0;" parent="1" source="W1fyiQ1UdQSS2ZDAop95-154" edge="1">
          <mxGeometry width="50" height="50" relative="1" as="geometry">
            <mxPoint x="219.79999999999995" y="279.9999999999999" as="sourcePoint" />
            <mxPoint x="220.00000000000003" y="81.6" as="targetPoint" />
          </mxGeometry>
        </mxCell>
        <mxCell id="W1fyiQ1UdQSS2ZDAop95-47" value="&lt;font style=&quot;font-size: 20px;&quot;&gt;dmem_ren&lt;/font&gt;" style="edgeLabel;html=1;align=center;verticalAlign=middle;resizable=0;points=[];rotation=90;" parent="W1fyiQ1UdQSS2ZDAop95-46" vertex="1" connectable="0">
          <mxGeometry x="0.0691" y="-1" relative="1" as="geometry">
            <mxPoint y="6" as="offset" />
          </mxGeometry>
        </mxCell>
        <mxCell id="W1fyiQ1UdQSS2ZDAop95-48" value="" style="endArrow=classic;html=1;rounded=0;entryX=0.153;entryY=1.006;entryDx=0;entryDy=0;entryPerimeter=0;exitX=0.683;exitY=0;exitDx=0;exitDy=0;exitPerimeter=0;" parent="1" source="W1fyiQ1UdQSS2ZDAop95-154" edge="1">
          <mxGeometry width="50" height="50" relative="1" as="geometry">
            <mxPoint x="250" y="259" as="sourcePoint" />
            <mxPoint x="250" y="80" as="targetPoint" />
          </mxGeometry>
        </mxCell>
        <mxCell id="W1fyiQ1UdQSS2ZDAop95-49" value="&lt;font style=&quot;font-size: 20px;&quot;&gt;dmem_wen&lt;/font&gt;" style="edgeLabel;html=1;align=center;verticalAlign=middle;resizable=0;points=[];rotation=90;" parent="W1fyiQ1UdQSS2ZDAop95-48" vertex="1" connectable="0">
          <mxGeometry x="0.0691" y="-1" relative="1" as="geometry">
            <mxPoint y="11" as="offset" />
          </mxGeometry>
        </mxCell>
        <mxCell id="W1fyiQ1UdQSS2ZDAop95-50" value="" style="endArrow=classic;html=1;rounded=0;entryX=0.153;entryY=1.006;entryDx=0;entryDy=0;entryPerimeter=0;exitX=0.733;exitY=-0.001;exitDx=0;exitDy=0;exitPerimeter=0;" parent="1" source="W1fyiQ1UdQSS2ZDAop95-154" edge="1">
          <mxGeometry width="50" height="50" relative="1" as="geometry">
            <mxPoint x="280" y="260" as="sourcePoint" />
            <mxPoint x="280" y="80" as="targetPoint" />
          </mxGeometry>
        </mxCell>
        <mxCell id="W1fyiQ1UdQSS2ZDAop95-51" value="&lt;font style=&quot;font-size: 20px;&quot;&gt;dmem_block_address&lt;/font&gt;" style="edgeLabel;html=1;align=center;verticalAlign=middle;resizable=0;points=[];rotation=90;" parent="W1fyiQ1UdQSS2ZDAop95-50" vertex="1" connectable="0">
          <mxGeometry x="0.0691" y="-1" relative="1" as="geometry">
            <mxPoint x="-1" y="6" as="offset" />
          </mxGeometry>
        </mxCell>
        <mxCell id="W1fyiQ1UdQSS2ZDAop95-52" value="" style="endArrow=classic;html=1;rounded=0;entryX=0.153;entryY=1.006;entryDx=0;entryDy=0;entryPerimeter=0;exitX=0.783;exitY=-0.001;exitDx=0;exitDy=0;exitPerimeter=0;" parent="1" source="W1fyiQ1UdQSS2ZDAop95-154" edge="1">
          <mxGeometry width="50" height="50" relative="1" as="geometry">
            <mxPoint x="310" y="259" as="sourcePoint" />
            <mxPoint x="310" y="80" as="targetPoint" />
          </mxGeometry>
        </mxCell>
        <mxCell id="W1fyiQ1UdQSS2ZDAop95-53" value="&lt;font style=&quot;font-size: 20px;&quot;&gt;dmem_din&lt;/font&gt;" style="edgeLabel;html=1;align=center;verticalAlign=middle;resizable=0;points=[];rotation=90;" parent="W1fyiQ1UdQSS2ZDAop95-52" vertex="1" connectable="0">
          <mxGeometry x="0.0691" y="-1" relative="1" as="geometry">
            <mxPoint x="-1" y="-2" as="offset" />
          </mxGeometry>
        </mxCell>
        <mxCell id="W1fyiQ1UdQSS2ZDAop95-54" value="" style="endArrow=none;html=1;rounded=0;entryX=0.153;entryY=1.006;entryDx=0;entryDy=0;entryPerimeter=0;startArrow=classic;startFill=1;endFill=0;strokeColor=#0000FF;exitX=0.85;exitY=-0.007;exitDx=0;exitDy=0;exitPerimeter=0;" parent="1" edge="1">
          <mxGeometry width="50" height="50" relative="1" as="geometry">
            <mxPoint x="350" y="318.8799999999999" as="sourcePoint" />
            <mxPoint x="350" y="80" as="targetPoint" />
          </mxGeometry>
        </mxCell>
        <mxCell id="W1fyiQ1UdQSS2ZDAop95-55" value="&lt;font style=&quot;font-size: 20px;&quot;&gt;dmem_ready&lt;/font&gt;" style="edgeLabel;html=1;align=center;verticalAlign=middle;resizable=0;points=[];rotation=90;" parent="W1fyiQ1UdQSS2ZDAop95-54" vertex="1" connectable="0">
          <mxGeometry x="0.0691" y="-1" relative="1" as="geometry">
            <mxPoint y="7" as="offset" />
          </mxGeometry>
        </mxCell>
        <mxCell id="W1fyiQ1UdQSS2ZDAop95-56" value="" style="endArrow=none;html=1;rounded=0;entryX=0.153;entryY=1.006;entryDx=0;entryDy=0;entryPerimeter=0;startArrow=classic;startFill=1;endFill=0;strokeColor=#0000FF;exitX=0.9;exitY=-0.003;exitDx=0;exitDy=0;exitPerimeter=0;" parent="1" source="W1fyiQ1UdQSS2ZDAop95-154" edge="1">
          <mxGeometry width="50" height="50" relative="1" as="geometry">
            <mxPoint x="380" y="259" as="sourcePoint" />
            <mxPoint x="380" y="80" as="targetPoint" />
          </mxGeometry>
        </mxCell>
        <mxCell id="W1fyiQ1UdQSS2ZDAop95-57" value="&lt;font style=&quot;font-size: 20px;&quot;&gt;dmem_done&lt;/font&gt;" style="edgeLabel;html=1;align=center;verticalAlign=middle;resizable=0;points=[];rotation=90;" parent="W1fyiQ1UdQSS2ZDAop95-56" vertex="1" connectable="0">
          <mxGeometry x="0.0691" y="-1" relative="1" as="geometry">
            <mxPoint y="7" as="offset" />
          </mxGeometry>
        </mxCell>
        <mxCell id="W1fyiQ1UdQSS2ZDAop95-58" value="" style="endArrow=none;html=1;rounded=0;entryX=0.153;entryY=1.006;entryDx=0;entryDy=0;entryPerimeter=0;startArrow=classic;startFill=1;endFill=0;strokeColor=#0000FF;exitX=0.95;exitY=-0.001;exitDx=0;exitDy=0;exitPerimeter=0;" parent="1" source="W1fyiQ1UdQSS2ZDAop95-154" edge="1">
          <mxGeometry width="50" height="50" relative="1" as="geometry">
            <mxPoint x="410" y="259" as="sourcePoint" />
            <mxPoint x="410" y="80" as="targetPoint" />
          </mxGeometry>
        </mxCell>
        <mxCell id="W1fyiQ1UdQSS2ZDAop95-59" value="&lt;font style=&quot;font-size: 20px;&quot;&gt;dmem_dout&lt;/font&gt;" style="edgeLabel;html=1;align=center;verticalAlign=middle;resizable=0;points=[];rotation=90;" parent="W1fyiQ1UdQSS2ZDAop95-58" vertex="1" connectable="0">
          <mxGeometry x="0.0691" y="-1" relative="1" as="geometry">
            <mxPoint y="7" as="offset" />
          </mxGeometry>
        </mxCell>
        <mxCell id="W1fyiQ1UdQSS2ZDAop95-154" value="" style="rounded=0;whiteSpace=wrap;html=1;fillColor=none;" parent="1" vertex="1">
          <mxGeometry x="-160" y="320" width="600" height="160" as="geometry" />
        </mxCell>
        <mxCell id="W1fyiQ1UdQSS2ZDAop95-155" value="&lt;font style=&quot;font-size: 20px;&quot; color=&quot;#0000ff&quot;&gt;CPU&lt;/font&gt;" style="text;html=1;align=center;verticalAlign=middle;resizable=0;points=[];autosize=1;strokeWidth=1;" parent="1" vertex="1">
          <mxGeometry x="-168" y="290" width="70" height="40" as="geometry" />
        </mxCell>
        <mxCell id="W1fyiQ1UdQSS2ZDAop95-157" value="" style="endArrow=classic;html=1;rounded=0;entryX=0;entryY=0.16;entryDx=0;entryDy=0;entryPerimeter=0;" parent="1" edge="1">
          <mxGeometry width="50" height="50" relative="1" as="geometry">
            <mxPoint x="-240" as="sourcePoint" />
            <mxPoint x="-160" as="targetPoint" />
          </mxGeometry>
        </mxCell>
        <mxCell id="W1fyiQ1UdQSS2ZDAop95-158" value="&lt;div style=&quot;font-size: 20px;&quot;&gt;&lt;font style=&quot;font-size: 20px;&quot;&gt;clock&lt;/font&gt;&lt;/div&gt;" style="edgeLabel;html=1;align=center;verticalAlign=middle;resizable=0;points=[];" parent="W1fyiQ1UdQSS2ZDAop95-157" vertex="1" connectable="0">
          <mxGeometry x="0.0422" y="-6" relative="1" as="geometry">
            <mxPoint x="-2" y="-6" as="offset" />
          </mxGeometry>
        </mxCell>
        <mxCell id="W1fyiQ1UdQSS2ZDAop95-159" value="" style="endArrow=classic;html=1;rounded=0;entryX=0;entryY=0.16;entryDx=0;entryDy=0;entryPerimeter=0;" parent="1" edge="1">
          <mxGeometry width="50" height="50" relative="1" as="geometry">
            <mxPoint x="-240" y="340" as="sourcePoint" />
            <mxPoint x="-160" y="340" as="targetPoint" />
          </mxGeometry>
        </mxCell>
        <mxCell id="W1fyiQ1UdQSS2ZDAop95-160" value="&lt;div style=&quot;font-size: 20px;&quot;&gt;&lt;font style=&quot;font-size: 20px;&quot;&gt;clock&lt;/font&gt;&lt;/div&gt;" style="edgeLabel;html=1;align=center;verticalAlign=middle;resizable=0;points=[];" parent="W1fyiQ1UdQSS2ZDAop95-159" vertex="1" connectable="0">
          <mxGeometry x="0.0422" y="-6" relative="1" as="geometry">
            <mxPoint x="-2" y="-6" as="offset" />
          </mxGeometry>
        </mxCell>
        <mxCell id="W1fyiQ1UdQSS2ZDAop95-161" value="" style="endArrow=classic;html=1;rounded=0;entryX=0;entryY=0.16;entryDx=0;entryDy=0;entryPerimeter=0;" parent="1" edge="1">
          <mxGeometry width="50" height="50" relative="1" as="geometry">
            <mxPoint x="-240" y="380" as="sourcePoint" />
            <mxPoint x="-160" y="380" as="targetPoint" />
          </mxGeometry>
        </mxCell>
        <mxCell id="W1fyiQ1UdQSS2ZDAop95-162" value="&lt;font style=&quot;font-size: 20px;&quot;&gt;reset&lt;/font&gt;" style="edgeLabel;html=1;align=center;verticalAlign=middle;resizable=0;points=[];" parent="W1fyiQ1UdQSS2ZDAop95-161" vertex="1" connectable="0">
          <mxGeometry x="0.0422" y="-6" relative="1" as="geometry">
            <mxPoint x="-2" y="-6" as="offset" />
          </mxGeometry>
        </mxCell>
        <mxCell id="6Hw_ykmh8B6qxmAuTtF5-1" value="&amp;nbsp;" style="text;whiteSpace=wrap;html=1;" vertex="1" parent="1">
          <mxGeometry x="630" y="310" width="40" height="40" as="geometry" />
        </mxCell>
        <mxCell id="6Hw_ykmh8B6qxmAuTtF5-3" value="" style="endArrow=classic;html=1;rounded=0;entryX=0;entryY=0.16;entryDx=0;entryDy=0;entryPerimeter=0;" edge="1" parent="1">
          <mxGeometry width="50" height="50" relative="1" as="geometry">
            <mxPoint x="-370" as="sourcePoint" />
            <mxPoint x="-290" as="targetPoint" />
          </mxGeometry>
        </mxCell>
        <mxCell id="6Hw_ykmh8B6qxmAuTtF5-4" value="&lt;div style=&quot;font-size: 20px;&quot;&gt;&lt;font style=&quot;font-size: 20px;&quot;&gt;clock&lt;/font&gt;&lt;/div&gt;" style="edgeLabel;html=1;align=center;verticalAlign=middle;resizable=0;points=[];" vertex="1" connectable="0" parent="6Hw_ykmh8B6qxmAuTtF5-3">
          <mxGeometry x="0.0422" y="-6" relative="1" as="geometry">
            <mxPoint x="-2" y="-6" as="offset" />
          </mxGeometry>
        </mxCell>
        <mxCell id="6Hw_ykmh8B6qxmAuTtF5-5" value="" style="endArrow=classic;html=1;rounded=0;entryX=0;entryY=0.16;entryDx=0;entryDy=0;entryPerimeter=0;" edge="1" parent="1">
          <mxGeometry width="50" height="50" relative="1" as="geometry">
            <mxPoint x="-370" y="40" as="sourcePoint" />
            <mxPoint x="-290" y="40" as="targetPoint" />
          </mxGeometry>
        </mxCell>
        <mxCell id="6Hw_ykmh8B6qxmAuTtF5-6" value="&lt;font style=&quot;font-size: 20px;&quot;&gt;reset&lt;/font&gt;" style="edgeLabel;html=1;align=center;verticalAlign=middle;resizable=0;points=[];" vertex="1" connectable="0" parent="6Hw_ykmh8B6qxmAuTtF5-5">
          <mxGeometry x="0.0422" y="-6" relative="1" as="geometry">
            <mxPoint x="-2" y="-6" as="offset" />
          </mxGeometry>
        </mxCell>
      </root>
    </mxGraphModel>
  </diagram>
</mxfile>
